<svg xmlns="http://www.w3.org/2000/svg" width="76" height="21" viewBox="0 0 76 21">
    <g fill="none" fill-rule="evenodd">
        <path fill="#272E3A" d="M47 0v14h28v7h-5v-2H42V0h5zM31.5 2c4.06 0 7.368 3.227 7.496 7.257L39 9.5V19H0v-5h8.788v-1.44c0-2.56-1.554-3.81-3.706-3.81-.957 0-2.093.238-3.169.714l-.478-3.75c1.375-.595 2.99-.952 4.305-.952 5.5 0 7.832 3.274 7.832 7.143L13.571 14l2.856.001c-.25-.71-.398-1.469-.423-2.258L16 11.5C16 7.358 19.358 4 23.5 4c.87 0 1.706.148 2.483.42C27.383 2.899 29.368 2 31.5 2zm0 5c-.6 0-1.162.211-1.604.582.647 1.053 1.04 2.277 1.097 3.588l.007.33V14h3V9.5c0-1.325-1.032-2.41-2.336-2.495L31.5 7zm-8 2c-1.38 0-2.5 1.12-2.5 2.5 0 1.325 1.032 2.41 2.336 2.495L23.5 14H26v-2.5c0-1.27-.947-2.32-2.174-2.479l-.162-.016L23.5 9z"/>
        <circle cx="72.5" cy="7.5" r="3" fill="#09F" fill-rule="nonzero"/>
        <circle cx="63.5" cy="7.5" r="3" fill="#0C9" fill-rule="nonzero"/>
        <circle cx="53.5" cy="7.5" r="3" fill="#00D358" fill-rule="nonzero"/>
    </g>
</svg>
